<svg xmlns="http://www.w3.org/2000/svg" viewBox="0 0 110 26" fill="none">
  <!-- Red Box with White 'A' cutout -->
  <rect width="26" height="26" rx="3.5" fill="#ED1C24"/>
  <path d="M16.5 4.5H22V21.5H18L15.3 14.5H12.8L16.5 4.5Z" fill="white"/>
  <path d="M9.5 4.5H4V21.5H8L10.7 14.5H13.2L9.5 4.5Z" fill="white"/>
  <path d="M11.6 11.8L15.2 21.5H12L11 18.8H9.2L11.6 11.8Z" fill="white"/>
  <!-- ADOBE Text in official vector geometry -->
  <!-- A -->
  <path d="M38.5 7H41.5L46 21H43L42 17.5H38L37 21H34L38.5 7ZM41.2 15L40 10.8L38.8 15H41.2Z" fill="#ED1C24"/>
  <!-- D -->
  <path d="M48 7H52.5C55.5 7 57.5 9 57.5 14C57.5 19 55.5 21 52.5 21H48V7ZM50.8 18.5H52.5C54 18.5 54.7 17 54.7 14C54.7 11 54 9.5 52.5 9.5H50.8V18.5Z" fill="#ED1C24"/>
  <!-- O -->
  <path d="M65.5 6.7C69.5 6.7 72 9.5 72 14C72 18.5 69.5 21.3 65.5 21.3C61.5 21.3 59 18.5 59 14C59 9.5 61.5 6.7 65.5 6.7ZM65.5 18.8C67.8 18.8 69.2 17 69.2 14C69.2 11 67.8 9.2 65.5 9.2C63.2 9.2 61.8 11 61.8 14C61.8 17 63.2 18.8 65.5 18.8Z" fill="#ED1C24"/>
  <!-- B -->
  <path d="M74.5 7H79C81.5 7 83 8 83 10.2C83 11.8 82 12.8 80.5 13.2C82.2 13.6 83.5 14.8 83.5 16.8C83.5 19.5 81.8 21 78.8 21H74.5V7ZM77.3 12.5H78.8C80 12.5 80.5 11.7 80.5 10.7C80.5 9.7 79.8 9.2 78.8 9.2H77.3V12.5ZM77.3 18.8H79C80.2 18.8 80.8 18 80.8 16.8C80.8 15.6 80.1 14.8 79 14.8H77.3V18.8Z" fill="#ED1C24"/>
  <!-- E -->
  <path d="M85.5 7H93.5V9.4H88.3V12.8H92.8V15.1H88.3V18.6H93.8V21H85.5V7Z" fill="#ED1C24"/>
</svg>
